<svg width="18" height="43" viewBox="0 0 18 43" fill="none" xmlns="http://www.w3.org/2000/svg">
<path d="M4.86 28.172C4.86 26.972 5.112 25.964 5.616 25.148C6.12 24.332 6.984 23.48 8.208 22.592C9.288 21.824 10.056 21.164 10.512 20.612C10.992 20.036 11.232 19.364 11.232 18.596C11.232 17.828 10.944 17.252 10.368 16.868C9.816 16.46 9.036 16.256 8.028 16.256C7.02 16.256 6.024 16.412 5.04 16.724C4.056 17.036 3.048 17.456 2.016 17.984L0.108 14.132C1.284 13.484 2.556 12.956 3.924 12.548C5.292 12.14 6.792 11.936 8.424 11.936C10.92 11.936 12.852 12.536 14.22 13.736C15.612 14.936 16.308 16.46 16.308 18.308C16.308 19.292 16.152 20.144 15.84 20.864C15.528 21.584 15.06 22.256 14.436 22.88C13.812 23.48 13.032 24.128 12.096 24.824C11.4 25.328 10.86 25.76 10.476 26.12C10.092 26.48 9.828 26.828 9.684 27.164C9.564 27.5 9.504 27.92 9.504 28.424V29.468H4.86V28.172ZM4.284 35.48C4.284 34.376 4.584 33.608 5.184 33.176C5.784 32.72 6.516 32.492 7.38 32.492C8.22 32.492 8.94 32.72 9.54 33.176C10.14 33.608 10.44 34.376 10.44 35.48C10.44 36.536 10.14 37.304 9.54 37.784C8.94 38.24 8.22 38.468 7.38 38.468C6.516 38.468 5.784 38.24 5.184 37.784C4.584 37.304 4.284 36.536 4.284 35.48Z" fill="white"/>
</svg>
