<svg width="39" height="49" viewBox="0 0 39 49" fill="none" xmlns="http://www.w3.org/2000/svg">
<path d="M36.72 38H19.728V35.372L26.46 28.568C27.756 27.272 28.848 26.12 29.736 25.112C30.624 24.104 31.296 23.12 31.752 22.16C32.208 21.176 32.436 20.108 32.436 18.956C32.436 17.54 32.016 16.472 31.176 15.752C30.336 15.008 29.244 14.636 27.9 14.636C26.652 14.636 25.548 14.852 24.588 15.284C23.652 15.716 22.692 16.316 21.708 17.084L20.016 14.96C21.024 14.12 22.176 13.412 23.472 12.836C24.792 12.236 26.268 11.936 27.9 11.936C30.3 11.936 32.196 12.548 33.588 13.772C34.98 14.972 35.676 16.64 35.676 18.776C35.676 20.12 35.4 21.38 34.848 22.556C34.296 23.732 33.528 24.896 32.544 26.048C31.56 27.176 30.408 28.388 29.088 29.684L23.724 34.976V35.12H36.72V38Z" fill="white"/>
<ellipse cx="6.6532" cy="40.685" rx="3.1788" ry="5.84766" transform="rotate(59.8635 6.6532 40.685)" fill="white"/>
<ellipse cx="6.6532" cy="33.685" rx="3.1788" ry="5.84766" transform="rotate(59.8635 6.6532 33.685)" fill="white"/>
<rect x="10" y="4" width="2" height="35" rx="1" fill="white"/>
</svg>
