<svg width="39" height="49" viewBox="0 0 39 49" fill="none" xmlns="http://www.w3.org/2000/svg">
<path d="M35.748 18.308C35.748 20.036 35.268 21.416 34.308 22.448C33.348 23.456 32.052 24.128 30.42 24.464V24.608C32.484 24.848 34.02 25.496 35.028 26.552C36.036 27.608 36.54 28.988 36.54 30.692C36.54 32.18 36.192 33.512 35.496 34.688C34.8 35.84 33.72 36.74 32.256 37.388C30.816 38.036 28.956 38.36 26.676 38.36C25.332 38.36 24.084 38.252 22.932 38.036C21.78 37.844 20.676 37.484 19.62 36.956V34.004C20.7 34.532 21.864 34.952 23.112 35.264C24.36 35.552 25.56 35.696 26.712 35.696C29.016 35.696 30.672 35.252 31.68 34.364C32.712 33.452 33.228 32.204 33.228 30.62C33.228 29.012 32.592 27.86 31.32 27.164C30.072 26.444 28.308 26.084 26.028 26.084H23.544V23.384H26.064C28.176 23.384 29.772 22.94 30.852 22.052C31.956 21.164 32.508 19.988 32.508 18.524C32.508 17.276 32.088 16.316 31.248 15.644C30.408 14.948 29.268 14.6 27.828 14.6C26.436 14.6 25.248 14.804 24.264 15.212C23.28 15.62 22.308 16.136 21.348 16.76L19.764 14.6C20.676 13.88 21.804 13.256 23.148 12.728C24.516 12.2 26.064 11.936 27.792 11.936C30.48 11.936 32.472 12.536 33.768 13.736C35.088 14.936 35.748 16.46 35.748 18.308Z" fill="white"/>
<ellipse cx="6.6532" cy="40.685" rx="3.1788" ry="5.84766" transform="rotate(59.8635 6.6532 40.685)" fill="white"/>
<ellipse cx="6.6532" cy="33.685" rx="3.1788" ry="5.84766" transform="rotate(59.8635 6.6532 33.685)" fill="white"/>
<ellipse cx="6.6532" cy="26.685" rx="3.1788" ry="5.84766" transform="rotate(59.8635 6.6532 26.685)" fill="white"/>
<rect x="10" y="4" width="2" height="35" rx="1" fill="white"/>
</svg>
