<svg width="39" height="49" viewBox="0 0 39 49" fill="none" xmlns="http://www.w3.org/2000/svg">
<path d="M37.872 32.168H34.128V38H31.068V32.168H18.756V29.468L30.852 12.152H34.128V29.324H37.872V32.168ZM31.068 21.224C31.068 19.976 31.092 18.92 31.14 18.056C31.188 17.168 31.224 16.328 31.248 15.536H31.104C30.912 15.992 30.672 16.484 30.384 17.012C30.096 17.54 29.82 17.984 29.556 18.344L21.852 29.324H31.068V21.224Z" fill="white"/>
<ellipse cx="6.6532" cy="40.685" rx="3.1788" ry="5.84766" transform="rotate(59.8635 6.6532 40.685)" fill="white"/>
<ellipse cx="6.6532" cy="33.685" rx="3.1788" ry="5.84766" transform="rotate(59.8635 6.6532 33.685)" fill="white"/>
<ellipse cx="6.6532" cy="26.685" rx="3.1788" ry="5.84766" transform="rotate(59.8635 6.6532 26.685)" fill="white"/>
<ellipse cx="6.6532" cy="19.685" rx="3.1788" ry="5.84766" transform="rotate(59.8635 6.6532 19.685)" fill="white"/>
<rect x="10" y="4" width="2" height="35" rx="1" fill="white"/>
</svg>
