<svg width="40" height="33" viewBox="0 0 40 33" fill="none" xmlns="http://www.w3.org/2000/svg">
<mask id="path-1-inside-1" fill="white">
<path d="M39.7522 0.576329C39.3198 -0.0366809 38.4696 -0.184016 37.8562 0.247362L27.7156 7.39045C25.4162 7.00738 22.8294 6.80449 20.218 6.80449C17.9949 6.80449 15.8477 6.94603 13.8304 7.22283L1.95954 1.39513C1.28711 1.06519 0.470734 1.3444 0.138384 2.01876C0.0152027 2.27141 -0.0268239 2.55158 0.0166519 2.82983C0.0857303 3.26652 0.363976 3.6438 0.761056 3.83895L9.45382 8.10636C5.73663 9.15461 3.63626 10.7077 3.63626 12.452C3.63626 12.5622 3.64544 12.6723 3.66187 12.781H3.63626V27.5536H3.65269C3.83384 29.0791 5.56949 30.4071 8.70169 31.407C11.7851 32.3915 15.8747 32.9335 20.2175 32.9335C24.5607 32.9335 28.6509 32.3915 31.7343 31.407C34.8665 30.4071 36.6026 29.0791 36.7837 27.5536H36.8007V12.781H36.7751C36.7915 12.6713 36.8007 12.5612 36.8007 12.452C36.8007 10.7429 34.8573 9.24929 31.2981 8.19669L39.4232 2.47285C39.7845 2.21827 40 1.80187 40 1.35986C40.0005 1.07775 39.9145 0.806752 39.7522 0.576329ZM20.218 7.84212C22.3802 7.84212 24.5226 7.98366 26.4906 8.25369L25.8201 8.72613C24.0125 8.51745 22.1179 8.41069 20.1837 8.41069C19.5233 8.41069 18.8567 8.42373 18.2007 8.44885C17.8625 8.38943 17.521 8.40586 17.1969 8.49667C16.9481 8.51117 16.7235 8.52614 16.5162 8.5416L15.5477 8.06578C17.0491 7.91796 18.6123 7.84212 20.218 7.84212ZM24.8032 12.3921C24.5395 13.0235 23.811 13.323 23.1797 13.0587C22.5483 12.795 22.2493 12.0665 22.513 11.4347C22.712 10.9589 23.1739 10.6719 23.6598 10.6719C23.8192 10.6719 23.9811 10.7028 24.1366 10.768C24.7685 11.0318 25.0675 11.7603 24.8032 12.3921ZM24.369 9.7483C23.2511 9.38068 22.0169 9.93041 21.5561 11.0347C21.0716 12.1941 21.6208 13.5317 22.7797 14.0162C23.0661 14.136 23.3627 14.1925 23.655 14.1925C24.5472 14.1925 25.3955 13.6655 25.7607 12.7921C25.8723 12.525 25.9283 12.2482 25.9355 11.9747L28.4861 10.1777C31.9072 10.8294 34.4694 11.8574 35.6176 13.0322L35.6031 13.0602C34.5926 15.0007 28.8571 17.0629 20.218 17.0629C11.5788 17.0629 5.84387 15.0007 4.83378 13.0602L4.81349 13.0211C4.8077 13.009 4.80383 12.9969 4.79804 12.9848C6.12453 11.6796 9.22098 10.5594 13.2116 9.95118L15.5709 11.1096C15.6221 11.382 15.7211 11.6463 15.8714 11.8892C16.3018 12.5863 17.0491 12.9708 17.8138 12.9708C18.2219 12.9708 18.635 12.8612 19.0074 12.6312C19.5253 12.3114 19.8876 11.8091 20.0276 11.2163C20.1677 10.6241 20.0687 10.0125 19.7489 9.4942C19.7397 9.4802 19.7296 9.46715 19.7204 9.45314C19.875 9.45169 20.0296 9.44831 20.1837 9.44831C21.6633 9.44831 23.1188 9.51159 24.5274 9.63671L24.369 9.7483ZM34.2283 17.5237C34.8254 17.2334 35.3379 16.9257 35.7635 16.602V23.3084L34.2283 17.5237ZM35.763 15.1973C35.2906 15.7451 34.4805 16.2837 33.4037 16.7639C33.1458 16.8793 32.8699 16.9928 32.583 17.1006C30.7493 17.7913 28.3818 18.3193 25.7365 18.6266C25.2955 18.6778 24.8617 18.7217 24.4448 18.757C23.0695 18.8773 21.6358 18.9386 20.1837 18.9386C18.8065 18.9386 17.4365 18.8831 16.111 18.7729C15.6718 18.7377 15.2347 18.6952 14.8101 18.6468C12.3686 18.3739 10.1345 17.9087 8.34905 17.3025C8.06356 17.2054 7.77952 17.101 7.50465 16.9919C6.20955 16.4769 5.23618 15.8856 4.67341 15.2746V14.5041C5.89218 15.6364 7.95584 16.3909 9.64608 16.8527C12.5928 17.6575 16.3472 18.101 20.218 18.101C24.0888 18.101 27.8437 17.6575 30.7899 16.8527C32.4806 16.3914 34.5443 15.6369 35.7635 14.5041L35.763 15.1973ZM20.2247 30.4225L16.8003 19.8632C17.9099 19.9371 19.0436 19.9762 20.1837 19.9762C21.3933 19.9762 22.5884 19.9328 23.7511 19.8506L20.2247 30.4225ZM4.67341 23.849V16.6542C5.20913 17.0513 5.87672 17.4237 6.6704 17.7682L4.67341 23.849ZM14.0323 19.5985L10.3736 29.2294L8.81521 18.5386C10.3422 18.9927 12.1194 19.3536 14.0323 19.5985ZM15.0955 19.7207C15.2897 19.7405 15.4849 19.7593 15.6815 19.7767L19.6108 31.892C16.2235 31.8519 13.2377 31.4785 10.8436 30.9133L15.0955 19.7207ZM24.8747 19.7603C25.0631 19.7429 25.2544 19.7236 25.4476 19.7028L29.5083 30.9336C27.1292 31.4872 24.1748 31.8519 20.8286 31.8915L24.8747 19.7603ZM26.5051 19.5763C28.5895 19.3014 30.4942 18.8903 32.0961 18.3696L30.074 29.4472L26.5051 19.5763ZM18.8659 10.0396C19.0403 10.3217 19.0939 10.655 19.0176 10.9777C18.9412 11.3004 18.7441 11.5743 18.462 11.7482C17.8795 12.1081 17.1133 11.9269 16.7539 11.3443C16.58 11.0618 16.5259 10.7289 16.6022 10.4062C16.6786 10.0835 16.8761 9.80965 17.1582 9.63574C17.3563 9.51304 17.58 9.44976 17.8075 9.44976C17.9036 9.44976 18.0002 9.46087 18.0954 9.48358C18.4181 9.56038 18.6915 9.75747 18.8659 10.0396ZM1.04123 2.66849C1.03109 2.60086 1.04075 2.53516 1.07022 2.47526C1.14896 2.31537 1.34315 2.24822 1.50305 2.32696L12.8276 7.88656L15.9279 9.4087C15.8071 9.58647 15.711 9.78115 15.6438 9.98935L13.5232 8.94737L1.21852 2.9076C1.12384 2.86123 1.05766 2.77138 1.04123 2.66849ZM10.8871 8.8097L11.6233 9.17152C8.85144 9.7053 6.60712 10.4879 5.12362 11.4289C5.99121 10.427 8.06356 9.46764 10.8871 8.8097ZM4.67341 27.2855C4.67341 27.2391 4.67727 27.1932 4.68258 27.1474L7.63653 18.1512C7.66213 18.1604 7.68822 18.1691 7.7143 18.1788L9.51952 30.5646C6.46848 29.668 4.67341 28.442 4.67341 27.2855ZM30.9251 30.5621L33.224 17.9652C33.2385 17.9594 33.253 17.9536 33.2675 17.9479L35.7606 27.3435C35.7022 28.4816 33.9211 29.6806 30.9251 30.5621ZM35.3944 11.5226C34.0795 10.6449 32.1164 9.90239 29.6503 9.3575L30.201 8.96959C32.7994 9.64395 34.6471 10.5661 35.3944 11.5226ZM38.8261 1.62458L25.6872 10.8801C25.5897 10.6883 25.465 10.5096 25.3158 10.3507L38.4527 1.09611C38.5991 0.993698 38.801 1.02848 38.9039 1.17388C38.9527 1.24344 38.9629 1.31349 38.9629 1.35986C38.9629 1.46517 38.9116 1.5642 38.8261 1.62458Z"/>
</mask>
<path d="M39.7522 0.576329C39.3198 -0.0366809 38.4696 -0.184016 37.8562 0.247362L27.7156 7.39045C25.4162 7.00738 22.8294 6.80449 20.218 6.80449C17.9949 6.80449 15.8477 6.94603 13.8304 7.22283L1.95954 1.39513C1.28711 1.06519 0.470734 1.3444 0.138384 2.01876C0.0152027 2.27141 -0.0268239 2.55158 0.0166519 2.82983C0.0857303 3.26652 0.363976 3.6438 0.761056 3.83895L9.45382 8.10636C5.73663 9.15461 3.63626 10.7077 3.63626 12.452C3.63626 12.5622 3.64544 12.6723 3.66187 12.781H3.63626V27.5536H3.65269C3.83384 29.0791 5.56949 30.4071 8.70169 31.407C11.7851 32.3915 15.8747 32.9335 20.2175 32.9335C24.5607 32.9335 28.6509 32.3915 31.7343 31.407C34.8665 30.4071 36.6026 29.0791 36.7837 27.5536H36.8007V12.781H36.7751C36.7915 12.6713 36.8007 12.5612 36.8007 12.452C36.8007 10.7429 34.8573 9.24929 31.2981 8.19669L39.4232 2.47285C39.7845 2.21827 40 1.80187 40 1.35986C40.0005 1.07775 39.9145 0.806752 39.7522 0.576329ZM20.218 7.84212C22.3802 7.84212 24.5226 7.98366 26.4906 8.25369L25.8201 8.72613C24.0125 8.51745 22.1179 8.41069 20.1837 8.41069C19.5233 8.41069 18.8567 8.42373 18.2007 8.44885C17.8625 8.38943 17.521 8.40586 17.1969 8.49667C16.9481 8.51117 16.7235 8.52614 16.5162 8.5416L15.5477 8.06578C17.0491 7.91796 18.6123 7.84212 20.218 7.84212ZM24.8032 12.3921C24.5395 13.0235 23.811 13.323 23.1797 13.0587C22.5483 12.795 22.2493 12.0665 22.513 11.4347C22.712 10.9589 23.1739 10.6719 23.6598 10.6719C23.8192 10.6719 23.9811 10.7028 24.1366 10.768C24.7685 11.0318 25.0675 11.7603 24.8032 12.3921ZM24.369 9.7483C23.2511 9.38068 22.0169 9.93041 21.5561 11.0347C21.0716 12.1941 21.6208 13.5317 22.7797 14.0162C23.0661 14.136 23.3627 14.1925 23.655 14.1925C24.5472 14.1925 25.3955 13.6655 25.7607 12.7921C25.8723 12.525 25.9283 12.2482 25.9355 11.9747L28.4861 10.1777C31.9072 10.8294 34.4694 11.8574 35.6176 13.0322L35.6031 13.0602C34.5926 15.0007 28.8571 17.0629 20.218 17.0629C11.5788 17.0629 5.84387 15.0007 4.83378 13.0602L4.81349 13.0211C4.8077 13.009 4.80383 12.9969 4.79804 12.9848C6.12453 11.6796 9.22098 10.5594 13.2116 9.95118L15.5709 11.1096C15.6221 11.382 15.7211 11.6463 15.8714 11.8892C16.3018 12.5863 17.0491 12.9708 17.8138 12.9708C18.2219 12.9708 18.635 12.8612 19.0074 12.6312C19.5253 12.3114 19.8876 11.8091 20.0276 11.2163C20.1677 10.6241 20.0687 10.0125 19.7489 9.4942C19.7397 9.4802 19.7296 9.46715 19.7204 9.45314C19.875 9.45169 20.0296 9.44831 20.1837 9.44831C21.6633 9.44831 23.1188 9.51159 24.5274 9.63671L24.369 9.7483ZM34.2283 17.5237C34.8254 17.2334 35.3379 16.9257 35.7635 16.602V23.3084L34.2283 17.5237ZM35.763 15.1973C35.2906 15.7451 34.4805 16.2837 33.4037 16.7639C33.1458 16.8793 32.8699 16.9928 32.583 17.1006C30.7493 17.7913 28.3818 18.3193 25.7365 18.6266C25.2955 18.6778 24.8617 18.7217 24.4448 18.757C23.0695 18.8773 21.6358 18.9386 20.1837 18.9386C18.8065 18.9386 17.4365 18.8831 16.111 18.7729C15.6718 18.7377 15.2347 18.6952 14.8101 18.6468C12.3686 18.3739 10.1345 17.9087 8.34905 17.3025C8.06356 17.2054 7.77952 17.101 7.50465 16.9919C6.20955 16.4769 5.23618 15.8856 4.67341 15.2746V14.5041C5.89218 15.6364 7.95584 16.3909 9.64608 16.8527C12.5928 17.6575 16.3472 18.101 20.218 18.101C24.0888 18.101 27.8437 17.6575 30.7899 16.8527C32.4806 16.3914 34.5443 15.6369 35.7635 14.5041L35.763 15.1973ZM20.2247 30.4225L16.8003 19.8632C17.9099 19.9371 19.0436 19.9762 20.1837 19.9762C21.3933 19.9762 22.5884 19.9328 23.7511 19.8506L20.2247 30.4225ZM4.67341 23.849V16.6542C5.20913 17.0513 5.87672 17.4237 6.6704 17.7682L4.67341 23.849ZM14.0323 19.5985L10.3736 29.2294L8.81521 18.5386C10.3422 18.9927 12.1194 19.3536 14.0323 19.5985ZM15.0955 19.7207C15.2897 19.7405 15.4849 19.7593 15.6815 19.7767L19.6108 31.892C16.2235 31.8519 13.2377 31.4785 10.8436 30.9133L15.0955 19.7207ZM24.8747 19.7603C25.0631 19.7429 25.2544 19.7236 25.4476 19.7028L29.5083 30.9336C27.1292 31.4872 24.1748 31.8519 20.8286 31.8915L24.8747 19.7603ZM26.5051 19.5763C28.5895 19.3014 30.4942 18.8903 32.0961 18.3696L30.074 29.4472L26.5051 19.5763ZM18.8659 10.0396C19.0403 10.3217 19.0939 10.655 19.0176 10.9777C18.9412 11.3004 18.7441 11.5743 18.462 11.7482C17.8795 12.1081 17.1133 11.9269 16.7539 11.3443C16.58 11.0618 16.5259 10.7289 16.6022 10.4062C16.6786 10.0835 16.8761 9.80965 17.1582 9.63574C17.3563 9.51304 17.58 9.44976 17.8075 9.44976C17.9036 9.44976 18.0002 9.46087 18.0954 9.48358C18.4181 9.56038 18.6915 9.75747 18.8659 10.0396ZM1.04123 2.66849C1.03109 2.60086 1.04075 2.53516 1.07022 2.47526C1.14896 2.31537 1.34315 2.24822 1.50305 2.32696L12.8276 7.88656L15.9279 9.4087C15.8071 9.58647 15.711 9.78115 15.6438 9.98935L13.5232 8.94737L1.21852 2.9076C1.12384 2.86123 1.05766 2.77138 1.04123 2.66849ZM10.8871 8.8097L11.6233 9.17152C8.85144 9.7053 6.60712 10.4879 5.12362 11.4289C5.99121 10.427 8.06356 9.46764 10.8871 8.8097ZM4.67341 27.2855C4.67341 27.2391 4.67727 27.1932 4.68258 27.1474L7.63653 18.1512C7.66213 18.1604 7.68822 18.1691 7.7143 18.1788L9.51952 30.5646C6.46848 29.668 4.67341 28.442 4.67341 27.2855ZM30.9251 30.5621L33.224 17.9652C33.2385 17.9594 33.253 17.9536 33.2675 17.9479L35.7606 27.3435C35.7022 28.4816 33.9211 29.6806 30.9251 30.5621ZM35.3944 11.5226C34.0795 10.6449 32.1164 9.90239 29.6503 9.3575L30.201 8.96959C32.7994 9.64395 34.6471 10.5661 35.3944 11.5226ZM38.8261 1.62458L25.6872 10.8801C25.5897 10.6883 25.465 10.5096 25.3158 10.3507L38.4527 1.09611C38.5991 0.993698 38.801 1.02848 38.9039 1.17388C38.9527 1.24344 38.9629 1.31349 38.9629 1.35986C38.9629 1.46517 38.9116 1.5642 38.8261 1.62458Z" fill="white" stroke="white" stroke-width="6" mask="url(#path-1-inside-1)"/>
</svg>
