<svg width="40" height="42" viewBox="0 0 40 42" fill="none" xmlns="http://www.w3.org/2000/svg">
<path fill-rule="evenodd" clip-rule="evenodd" d="M21.6183 26.7807L21.6617 13.9763V13.4928C21.6617 13.0097 22.0567 12.6141 22.5384 12.6141C22.993 12.6141 23.3696 12.9659 23.4112 13.4112L23.4155 13.4301C23.5329 14.1056 23.7566 14.7503 24.0461 15.3698C24.2387 15.7808 24.4595 16.1788 24.6964 16.5669C26.3488 19.2801 29.362 21.5867 27.981 25.0654C27.7134 25.7391 27.311 26.4469 26.8449 26.9998C26.6596 27.2196 26.3418 27.2718 26.0965 27.1217C25.8515 26.9718 25.7512 26.6664 25.8606 26.4003C26.0506 25.935 26.4378 25.1821 26.5256 24.7125C27.1653 21.2974 24.2783 20.6798 23.3975 19.9362L23.3662 28.8928C23.3632 29.7394 23.3742 30.2433 22.9654 31.0292C22.0202 32.8452 19.6989 33.9218 17.7078 33.4678C15.5894 32.9851 14.6319 30.909 15.638 28.9768C16.583 27.1603 18.9038 26.0836 20.8949 26.5371C21.1444 26.5938 21.3874 26.6744 21.6183 26.7807ZM16.1657 20.8881L16.1949 12.338V12.0154C16.1949 11.6931 16.4585 11.4286 16.7804 11.4286C17.0841 11.4286 17.3353 11.6631 17.3628 11.9607L17.366 11.974C17.4447 12.4243 17.5935 12.8551 17.7869 13.2685C17.9162 13.5431 18.0632 13.8091 18.2206 14.0681C19.3247 15.8795 21.3366 17.4198 20.4145 19.743C20.2362 20.1928 19.9672 20.6651 19.6561 21.0343C19.5316 21.1813 19.32 21.2156 19.1561 21.116C18.9922 21.0156 18.9258 20.8119 18.9985 20.6343C19.1256 20.3236 19.3837 19.8206 19.443 19.5072C19.8699 17.227 17.942 16.8142 17.3539 16.3181L17.3325 22.2984C17.3312 22.8635 17.3377 23.1999 17.0655 23.7249C16.4345 24.9374 14.8846 25.6565 13.5548 25.3537C12.1407 25.0309 11.5008 23.6446 12.1725 22.3542C12.8033 21.1418 14.3536 20.4228 15.683 20.7252C15.8492 20.7635 16.012 20.8171 16.1657 20.8881Z" fill="white"/>
<path d="M13.0744 11.0825C15.2594 9.82556 17.6482 9.22631 19.9998 9.23066V13.845L26.929 6.92396L19.9998 0V4.64817C16.8582 4.63947 13.6779 5.40725 10.7648 7.08814C5.83652 9.93131 2.72197 14.6983 1.80982 19.8916L6.29767 21.092C6.88871 17.0417 9.25142 13.2907 13.0744 11.0825ZM7.99932 29.9958L12 27.6867L2.53751 25.1564L0 34.6097L4.00208 32.301C8.55656 40.1835 18.0605 43.4212 26.3346 40.3936L25.1342 35.9168C18.8428 38.4287 11.491 36.0293 7.99932 29.9958ZM35.9955 32.2962C39.1801 26.774 39.4191 19.7612 35.9999 13.847C34.8859 11.9183 33.4643 10.2828 31.8481 8.93321L28.5713 12.2047C29.9166 13.2636 31.0924 14.5838 32.0016 16.1537C34.5638 20.5879 34.3735 25.8416 31.9847 29.9847L27.9991 27.6867L30.54 37.1423L40 34.6053L35.9955 32.2962Z" fill="white"/>
</svg>
