{
     "title": "rhythm",
     "description": "rhythm",
     "blocks": [
          {
               "template": "question",
               "questions": [
                    {
                         "title": "153854",
                         "color": "zor",
                         "notes": [
                              {
                                   "name": "F4",
                                   "midi": 65,
                                   "time": 0,
                                   "velocity": 0.9921259842519685,
                                   "duration": 0.5
                              },
                              {
                                   "name": "F4",
                                   "midi": 65,
                                   "time": 0.5,
                                   "velocity": 0.9921259842519685,
                                   "duration": 0.375
                              },
                              {
                                   "name": "G4",
                                   "midi": 67,
                                   "time": 0.875,
                                   "velocity": 0.9921259842519685,
                                   "duration": 0.125
                              },
                              {
                                   "name": "F4",
                                   "midi": 65,
                                   "time": 1,
                                   "velocity": 0.9921259842519685,
                                   "duration": 0.5
                              },
                              {
                                   "name": "A4",
                                   "midi": 69,
                                   "time": 1.5,
                                   "velocity": 0.9921259842519685,
                                   "duration": 0.375
                              },
                              {
                                   "name": "A#4",
                                   "midi": 70,
                                   "time": 1.875,
                                   "velocity": 0.9921259842519685,
                                   "duration": 0.125
                              },
                              {
                                   "name": "C5",
                                   "midi": 72,
                                   "time": 2,
                                   "velocity": 0.9921259842519685,
                                   "duration": 0.5
                              },
                              {
                                   "name": "C5",
                                   "midi": 72,
                                   "time": 2.5,
                                   "velocity": 0.9921259842519685,
                                   "duration": 0.375
                              },
                              {
                                   "name": "D5",
                                   "midi": 74,
                                   "time": 2.875,
                                   "velocity": 0.9921259842519685,
                                   "duration": 0.125
                              },
                              {
                                   "name": "C5",
                                   "midi": 72,
                                   "time": 3,
                                   "velocity": 0.9921259842519685,
                                   "duration": 1
                              },
                              {
                                   "name": "D5",
                                   "midi": 74,
                                   "time": 4,
                                   "velocity": 0.9921259842519685,
                                   "duration": 0.5
                              },
                              {
                                   "name": "D5",
                                   "midi": 74,
                                   "time": 4.5,
                                   "velocity": 0.9921259842519685,
                                   "duration": 0.375
                              },
                              {
                                   "name": "D5",
                                   "midi": 74,
                                   "time": 4.875,
                                   "velocity": 0.9921259842519685,
                                   "duration": 0.125
                              },
                              {
                                   "name": "C5",
                                   "midi": 72,
                                   "time": 5,
                                   "velocity": 0.9921259842519685,
                                   "duration": 0.5
                              },
                              {
                                   "name": "A4",
                                   "midi": 69,
                                   "time": 5.5,
                                   "velocity": 0.9921259842519685,
                                   "duration": 0.375
                              },
                              {
                                   "name": "F4",
                                   "midi": 65,
                                   "time": 5.875,
                                   "velocity": 0.9921259842519685,
                                   "duration": 0.125
                              },
                              {
                                   "name": "G4",
                                   "midi": 67,
                                   "time": 6,
                                   "velocity": 0.9921259842519685,
                                   "duration": 0.5
                              },
                              {
                                   "name": "G4",
                                   "midi": 67,
                                   "time": 6.5,
                                   "velocity": 0.9921259842519685,
                                   "duration": 0.375
                              },
                              {
                                   "name": "A4",
                                   "midi": 69,
                                   "time": 6.875,
                                   "velocity": 0.9921259842519685,
                                   "duration": 0.125
                              },
                              {
                                   "name": "G4",
                                   "midi": 67,
                                   "time": 7,
                                   "velocity": 0.9921259842519685,
                                   "duration": 0.5
                              },
                              {
                                   "name": "A4",
                                   "midi": 69,
                                   "time": 8,
                                   "velocity": 0.9921259842519685,
                                   "duration": 0.5
                              },
                              {
                                   "name": "A4",
                                   "midi": 69,
                                   "time": 8.5,
                                   "velocity": 0.9921259842519685,
                                   "duration": 0.375
                              },
                              {
                                   "name": "G4",
                                   "midi": 67,
                                   "time": 8.875,
                                   "velocity": 0.9921259842519685,
                                   "duration": 0.125
                              },
                              {
                                   "name": "F4",
                                   "midi": 65,
                                   "time": 9,
                                   "velocity": 0.9921259842519685,
                                   "duration": 0.5
                              },
                              {
                                   "name": "G4",
                                   "midi": 67,
                                   "time": 9.5,
                                   "velocity": 0.9921259842519685,
                                   "duration": 0.375
                              },
                              {
                                   "name": "A4",
                                   "midi": 69,
                                   "time": 9.875,
                                   "velocity": 0.9921259842519685,
                                   "duration": 0.125
                              },
                              {
                                   "name": "A#4",
                                   "midi": 70,
                                   "time": 10,
                                   "velocity": 0.9921259842519685,
                                   "duration": 0.5
                              },
                              {
                                   "name": "A#4",
                                   "midi": 70,
                                   "time": 10.5,
                                   "velocity": 0.9921259842519685,
                                   "duration": 0.375
                              },
                              {
                                   "name": "C5",
                                   "midi": 72,
                                   "time": 10.875,
                                   "velocity": 0.9921259842519685,
                                   "duration": 0.125
                              },
                              {
                                   "name": "D5",
                                   "midi": 74,
                                   "time": 11,
                                   "velocity": 0.9921259842519685,
                                   "duration": 1
                              },
                              {
                                   "name": "C5",
                                   "midi": 72,
                                   "time": 12,
                                   "velocity": 0.9921259842519685,
                                   "duration": 0.5
                              },
                              {
                                   "name": "C5",
                                   "midi": 72,
                                   "time": 12.5,
                                   "velocity": 0.9921259842519685,
                                   "duration": 0.375
                              },
                              {
                                   "name": "D5",
                                   "midi": 74,
                                   "time": 12.875,
                                   "velocity": 0.9921259842519685,
                                   "duration": 0.125
                              },
                              {
                                   "name": "C5",
                                   "midi": 72,
                                   "time": 13,
                                   "velocity": 0.9921259842519685,
                                   "duration": 0.5
                              },
                              {
                                   "name": "F4",
                                   "midi": 65,
                                   "time": 13.5,
                                   "velocity": 0.9921259842519685,
                                   "duration": 0.375
                              },
                              {
                                   "name": "G4",
                                   "midi": 67,
                                   "time": 13.875,
                                   "velocity": 0.9921259842519685,
                                   "duration": 0.125
                              },
                              {
                                   "name": "A4",
                                   "midi": 69,
                                   "time": 14,
                                   "velocity": 0.9921259842519685,
                                   "duration": 0.5
                              },
                              {
                                   "name": "A4",
                                   "midi": 69,
                                   "time": 14.5,
                                   "velocity": 0.9921259842519685,
                                   "duration": 0.375
                              },
                              {
                                   "name": "G4",
                                   "midi": 67,
                                   "time": 14.875,
                                   "velocity": 0.9921259842519685,
                                   "duration": 0.125
                              },
                              {
                                   "name": "F4",
                                   "midi": 65,
                                   "time": 15,
                                   "velocity": 0.9921259842519685,
                                   "duration": 1
                              }
                         ]
                    }
               ]
          }
     ]
}
